# xmcd
#
# Track frame offsets: 
#        150
#        17415
#        37538
#        59888
#        85914
#        109314
#
# Disc length: 1720 seconds
#
# Revision: 1
# Processed by: cddbd v1.5.2PL0 Copyright (c) Steve Scherf et al.
# Submitted via: ExactAudioCopy v1.3
#
DISCID=4206b606
DTITLE=四季映姫合同企画 - The Last Judgment
DYEAR=2008
DGENRE=東方アレンジ
TTITLE0=鷹 - Slacking 24／7
TTITLE1=みょん - sixty sins
TTITLE2=SS - Dancing with EIKI!!
TTITLE3=真狭 - 彼岸円舞曲
TTITLE4=通天 - 四季折々に咲く
TTITLE5=ぴずや - 七年後に咲く華々
EXTD=YEAR: 2008
EXTT0=
EXTT1=
EXTT2=
EXTT3=
EXTT4=
EXTT5=
PLAYORDER=
